<svg xmlns="http://www.w3.org/2000/svg" width="80" height="80" viewBox="0 0 80 80">
  <g id="Grupo_3" data-name="Grupo 3" transform="translate(-2 -2)">
    <path id="Trazado_3" data-name="Trazado 3" d="M42,62a3.929,3.929,0,0,0,4-4V42a4,4,0,1,0-8,0V58a3.929,3.929,0,0,0,4,4Zm0-32a4.031,4.031,0,0,0,2.85-6.85,4.031,4.031,0,0,0-5.7,5.7A3.871,3.871,0,0,0,42,30Zm0,52a38.951,38.951,0,0,1-15.6-3.15A39.937,39.937,0,0,1,5.15,57.6,38.951,38.951,0,0,1,2,42,38.951,38.951,0,0,1,5.15,26.4,39.937,39.937,0,0,1,26.4,5.15,38.951,38.951,0,0,1,42,2,38.951,38.951,0,0,1,57.6,5.15,39.937,39.937,0,0,1,78.85,26.4,38.951,38.951,0,0,1,82,42a38.951,38.951,0,0,1-3.15,15.6A39.937,39.937,0,0,1,57.6,78.85,38.951,38.951,0,0,1,42,82Z" fill="#d5d5d5"/>
  </g>
</svg>
