<svg xmlns="http://www.w3.org/2000/svg" width="80" height="80" viewBox="0 0 80 80">
    <path fill="#FFF" fill-rule="evenodd" d="M40 50c4.48 0 8.646-1.12 12.5-3.36 3.854-2.239 6.901-5.286 9.14-9.14C63.88 33.646 65 29.48 65 25s-1.12-8.646-3.36-12.5c-2.239-3.854-5.286-6.901-9.14-9.14C48.646 1.12 44.48 0 40 0s-8.646 1.12-12.5 3.36c-3.854 2.239-6.901 5.286-9.14 9.14C16.12 16.354 15 20.52 15 25s1.12 8.646 3.36 12.5c2.239 3.854 5.286 6.901 9.14 9.14C31.354 48.88 35.52 50 40 50zm32.5 30c2.083 0 3.854-.73 5.313-2.188C79.27 76.355 80 74.584 80 72.5v-5.781c0-3.438-1.068-6.51-3.203-9.219-2.136-2.708-4.87-4.48-8.203-5.313L57.5 49.376C51.98 53.333 45.833 55.208 39.062 55c-6.145-.208-11.666-2.083-16.562-5.625l-11.094 2.813c-3.333.833-6.067 2.604-8.203 5.312C1.068 60.208 0 63.281 0 66.719V72.5c0 2.083.73 3.854 2.188 5.313C3.646 79.27 5.417 80 7.5 80h65z"/>
</svg>
