<svg xmlns="http://www.w3.org/2000/svg" width="80" height="80" viewBox="0 0 80 80">
  <g id="Grupo_2" data-name="Grupo 2" transform="translate(-4 -4)">
    <path id="Trazado_2" data-name="Trazado 2" d="M44,44a19.259,19.259,0,0,1-14.125-5.875A19.258,19.258,0,0,1,24,24,19.259,19.259,0,0,1,29.875,9.875,19.259,19.259,0,0,1,44,4,19.258,19.258,0,0,1,58.125,9.875,19.259,19.259,0,0,1,64,24a19.259,19.259,0,0,1-5.875,14.125A19.259,19.259,0,0,1,44,44ZM4,74V70a14.91,14.91,0,0,1,8-13.25,74.213,74.213,0,0,1,15.75-5.812,69.114,69.114,0,0,1,32.5,0A74.207,74.207,0,0,1,76,56.75,14.91,14.91,0,0,1,84,70v4A10.029,10.029,0,0,1,74,84H14a9.629,9.629,0,0,1-7.062-2.937A9.63,9.63,0,0,1,4,74Z" fill="#d5d5d5"/>
  </g>
</svg>
