<svg xmlns="http://www.w3.org/2000/svg" width="82" height="82" viewBox="0 0 82 82">
  <g id="Grupo_1" data-name="Grupo 1" transform="translate(-2 -2)">
    <path id="Trazado_1" data-name="Trazado 1" d="M2,22.5V2H22.5v8.2H10.2V22.5ZM2,84V63.5h8.2V75.8H22.5V84Zm61.5,0V75.8H75.8V63.5H84V84ZM75.8,22.5V10.2H63.5V2H84V22.5ZM65.55,65.55H71.7V71.7H65.55Zm0-12.3H71.7V59.4H65.55ZM59.4,59.4h6.15v6.15H59.4Zm-6.15,6.15H59.4V71.7H53.25ZM47.1,59.4h6.15v6.15H47.1ZM59.4,47.1h6.15v6.15H59.4Zm-6.15,6.15H59.4V59.4H53.25ZM47.1,47.1h6.15v6.15H47.1ZM71.7,14.3V38.9H47.1V14.3ZM38.9,47.1V71.7H14.3V47.1Zm0-32.8V38.9H14.3V14.3ZM32.75,65.55V53.25H20.45v12.3Zm0-32.8V20.45H20.45v12.3Zm32.8,0V20.45H53.25v12.3Z" fill="#d5d5d5"/>
  </g>
</svg>
