<svg xmlns="http://www.w3.org/2000/svg" width="82" height="83" viewBox="0 0 82 83">
    <path fill="#FFF" fill-rule="evenodd" d="M46.027.5c2.86 0 4.913 2.245 4.913 5.104v6.438c1.242.429 2.603.932 3.779 1.511l4.39-4.259c.972-.97 2.288-1.515 3.661-1.515 1.374 0 2.69.548 3.661 1.519l6.914 6.918c.971.971 1.516 2.296 1.516 3.669 0 1.373-.545 2.705-1.516 3.676l-4.26 4.29c.58 1.175 1.083 2.467 1.512 3.71h6.437c2.86 0 4.966 2.191 4.966 5.05v9.778c0 2.86-2.107 5.05-4.966 5.05h-6.437c-.43 1.243-.934 2.535-1.513 3.71l4.258 4.322c.971.971 1.515 2.288 1.515 3.66 0 1.374-.55 2.69-1.52 3.661l-6.923 6.915c-.97.97-2.304 1.516-3.677 1.516-1.373 0-2.723-.545-3.694-1.516l-4.325-4.26c-1.175.58-2.536 1.083-3.779 1.512v6.437c0 2.859-2.053 5.104-4.912 5.104H36.25c-2.859 0-5.188-2.245-5.189-5.105V70.96c-1.242-.43-2.465-.933-3.64-1.512l-4.252 4.259c-.971.97-2.288 1.515-3.661 1.515-1.373 0-2.69-.547-3.661-1.518l-6.915-6.919c-.97-.971-1.516-2.296-1.516-3.668 0-1.373.546-2.706 1.516-3.677l4.26-4.29c-.58-1.175-1.083-2.467-1.512-3.71H5.242C2.383 51.44 0 49.25 0 46.39V36.61c0-2.859 2.383-5.05 5.242-5.05h6.437c.43-1.243.933-2.529 1.512-3.704L8.93 23.54c-.97-.97-1.515-2.277-1.515-3.65 0-1.372.546-2.667 1.517-3.638l6.918-6.87c.97-.97 2.291-1.427 3.664-1.427 1.381 0 2.68.457 3.65 1.427l4.255 4.17c1.175-.578 2.398-1.082 3.64-1.511V5.604C31.06 2.745 33.39.5 36.25.5zM41 24.5c-9.374 0-17 7.626-17 17 0 9.374 7.626 17 17 17 9.374 0 17-7.627 17-17 0-9.374-7.626-17-17-17z"/>
</svg>
