<svg id="burger_menu" xmlns="http://www.w3.org/2000/svg" width="39" height="39" viewBox="0 0 39 39">
  <circle id="Elipse_1" data-name="Elipse 1" cx="19.5" cy="19.5" r="19.5" fill="rgba(249,249,249,0.2)"/>
  <g id="Grupo_9" data-name="Grupo 9" transform="translate(11.713 11.919)">
    <path id="Trazado_13" data-name="Trazado 13" d="M12.325,17.5l4.9,4.9a.916.916,0,0,1,.288.7,1.006,1.006,0,0,1-.312.7,1.055,1.055,0,0,1-.7.287.916.916,0,0,1-.7-.287L9.2,17.2a.877.877,0,0,1-.212-.325,1.156,1.156,0,0,1,0-.75A.877.877,0,0,1,9.2,15.8l6.6-6.6a.933.933,0,0,1,.688-.275A1.019,1.019,0,0,1,17.2,9.2a1,1,0,0,1,0,1.425L12.325,15.5H23.5a1,1,0,0,1,0,2Z" transform="translate(-8.925 -8.925)" fill="#fff"/>
  </g>
</svg>
