<svg width="39" height="39" viewBox="0 0 39 39" fill="none" xmlns="http://www.w3.org/2000/svg">
<circle cx="19.5" cy="19.5" r="19.5" fill="#F9F9F9"/>
<mask id="mask0_16_7693" style="mask-type:alpha" maskUnits="userSpaceOnUse" x="8" y="8" width="24" height="24">
<rect x="8" y="8" width="24" height="24" fill="#D9D9D9"/>
</mask>
<g mask="url(#mask0_16_7693)">
<path d="M12 15C11.7167 15 11.4792 14.9042 11.2875 14.7125C11.0958 14.5208 11 14.2833 11 14C11 13.7167 11.0958 13.4792 11.2875 13.2875C11.4792 13.0958 11.7167 13 12 13H28C28.2833 13 28.5208 13.0958 28.7125 13.2875C28.9042 13.4792 29 13.7167 29 14C29 14.2833 28.9042 14.5208 28.7125 14.7125C28.5208 14.9042 28.2833 15 28 15H12ZM12 27C11.7167 27 11.4792 26.9042 11.2875 26.7125C11.0958 26.5208 11 26.2833 11 26C11 25.7167 11.0958 25.4792 11.2875 25.2875C11.4792 25.0958 11.7167 25 12 25H28C28.2833 25 28.5208 25.0958 28.7125 25.2875C28.9042 25.4792 29 25.7167 29 26C29 26.2833 28.9042 26.5208 28.7125 26.7125C28.5208 26.9042 28.2833 27 28 27H12ZM12 21C11.7167 21 11.4792 20.9042 11.2875 20.7125C11.0958 20.5208 11 20.2833 11 20C11 19.7167 11.0958 19.4792 11.2875 19.2875C11.4792 19.0958 11.7167 19 12 19H28C28.2833 19 28.5208 19.0958 28.7125 19.2875C28.9042 19.4792 29 19.7167 29 20C29 20.2833 28.9042 20.5208 28.7125 20.7125C28.5208 20.9042 28.2833 21 28 21H12Z" fill="#2B2B2D"/>
</g>
</svg>
