<svg xmlns="http://www.w3.org/2000/svg" width="68" height="50" viewBox="0 0 68 50">
    <g fill="#FFF">
        <path d="M63.99 0C66.205 0 68 1.79 68 4c0 2.142-1.688 3.891-3.81 3.995l-.2.005H4.01C1.795 8 0 6.21 0 4 0 1.858 1.688.109 3.81.005L4.01 0h59.98zM63.99 21c2.215 0 4.01 1.79 4.01 4 0 2.142-1.688 3.891-3.81 3.995l-.2.005H4.01C1.795 29 0 27.21 0 25c0-2.142 1.688-3.891 3.81-3.995l.2-.005h59.98zM63.99 42c2.215 0 4.01 1.79 4.01 4 0 2.142-1.688 3.891-3.81 3.995l-.2.005H4.01C1.795 50 0 48.21 0 46c0-2.142 1.688-3.891 3.81-3.995l.2-.005h59.98z"/>
    </g>
</svg>
