<svg xmlns="http://www.w3.org/2000/svg" width="53" height="53" viewBox="0 0 53 53">
    <g fill="#FFF">
        <path d="M47.174 1.17L2.136 46.208C.581 47.762.58 50.28 2.133 51.834c1.552 1.553 4.071 1.551 5.626-.004L52.797 6.792c1.555-1.554 1.556-4.073.004-5.626-1.553-1.553-4.072-1.551-5.627.004z" transform="translate(-1)"/>
        <path d="M52.797 46.208L7.76 1.17C6.204-.385 3.685-.387 2.133 1.166.58 2.719.58 5.238 2.136 6.792L47.174 51.83c1.555 1.555 4.074 1.557 5.627.004 1.552-1.553 1.55-4.072-.004-5.626z" transform="translate(-1)"/>
    </g>
</svg>
