<svg xmlns="http://www.w3.org/2000/svg" width="99" height="63" viewBox="0 0 99 63">
    <g fill="none" fill-rule="evenodd">
        <path fill="#FFF" d="M60.634 2.842c-3.038-.56-6.1-.92-9.164-1.069-4.82-.235-9.643.05-14.37.883C25.771 4.65 14.992 9.795 6.111 18.486c-.195.183-.389.365-.582.56-6.074 6.096-6.05 15.96.05 22.035.645.643 1.34 1.225 2.07 1.733 1.905.656 4.795.221 6.422-.965L28.428 31.38c2.597-1.894 3.536-5.393 2.106-8.273l-.052-.101c-.565-1.118-.068-2.472 1.092-2.942 5.412-2.195 11.16-3.297 16.912-3.308 5.75-.01 11.493 1.072 16.91 3.245 1.164.466 1.665 1.82 1.104 2.94l-.05.102c-1.418 2.882-.462 6.376 2.141 8.259l15.67 11.332c1.54 1.114 3.62 1.122 5.168.02.728-.499 1.419-1.083 2.062-1.728 5.879-5.903 6.05-15.353.51-21.454-.184-.194-.366-.387-.56-.582-.196-.194-.39-.375-.586-.557-1.498-1.455-2.389-2.14-3.993-3.41 0 0-8.013-6.396-13.808-8.599-4.046-1.536-8.209-2.704-12.42-3.483z" transform="translate(.667 .667)"/>
        <path stroke="#FFF" stroke-linecap="round" stroke-linejoin="round" stroke-width="5" d="M40.365 54.335L57.852 36.781" transform="translate(.667 .667) rotate(-45 49.108 45.558)"/>
        <path stroke="#FFF" stroke-linecap="round" stroke-linejoin="round" stroke-width="5" d="M41.66 39.779L41.607 54.846 56.618 54.793" transform="translate(.667 .667) rotate(-45 49.112 47.313)"/>
    </g>
</svg>
