<svg id="Grupo_16" data-name="Grupo 16" xmlns="http://www.w3.org/2000/svg" width="40" height="40" viewBox="0 0 40 40">
  <rect id="Rectángulo_4" data-name="Rectángulo 4" width="40" height="40" rx="20" fill="#ec4245"/>
  <g id="Grupo_15" data-name="Grupo 15">
    <path id="Trazado_18" data-name="Trazado 18" d="M15.833,27.5a1.672,1.672,0,0,1-1.667-1.667V15a.833.833,0,1,1,0-1.667H17.5a.819.819,0,0,1,.833-.833h3.333a.819.819,0,0,1,.833.833h3.333a.833.833,0,1,1,0,1.667V25.833A1.672,1.672,0,0,1,24.167,27.5Zm2.5-3.333a.819.819,0,0,0,.833-.833V17.5a.833.833,0,1,0-1.667,0v5.833a.819.819,0,0,0,.833.833Zm3.333,0a.819.819,0,0,0,.833-.833V17.5a.833.833,0,1,0-1.667,0v5.833a.818.818,0,0,0,.833.833Z" fill="#fff"/>
  </g>
</svg>
