<svg xmlns="http://www.w3.org/2000/svg" width="50" height="62" viewBox="0 0 50 62">
    <g fill="#FFFFFF" fill-rule="evenodd">
        <path d="M13.405 25.973c0-.699.608-1.265 1.36-1.265h2.174c.75 0 1.36.566 1.36 1.265v25.053c0 .7-.61 1.266-1.36 1.266h-2.175c-.75 0-1.36-.566-1.36-1.266V25.973zm9.516 0c0-.699.609-1.265 1.36-1.265h2.174c.75 0 1.36.566 1.36 1.265v25.053c0 .7-.609 1.266-1.36 1.266H24.28c-.75 0-1.36-.566-1.36-1.266V25.973zm9.516 0c0-.699.608-1.265 1.36-1.265h2.174c.75 0 1.36.566 1.36 1.265v25.053c0 .7-.609 1.266-1.36 1.266h-2.175c-.75 0-1.36-.566-1.36-1.266V25.973zM6.398 58.933c.075 1.668 1.55 2.985 3.345 2.985h31.25c1.794 0 3.27-1.317 3.344-2.985L46.57 15.08H4.167l2.231 43.852zM47.882 3.314h-14.54V.678c0-.374-.317-.678-.708-.678H17.366c-.39 0-.707.304-.707.678v2.636H2.119C.949 3.314 0 4.224 0 5.346v6.384h50V5.347c0-1.123-.948-2.033-2.118-2.033"/>
    </g>
</svg>
