<svg xmlns="http://www.w3.org/2000/svg" width="39" height="39" viewBox="0 0 39 39">
  <g id="Grupo_22" data-name="Grupo 22" transform="translate(-4)">
    <path id="Trazado_22" data-name="Trazado 22" d="M19.5,0A19.5,19.5,0,1,1,0,19.5,19.5,19.5,0,0,1,19.5,0Z" transform="translate(4)" fill="rgba(249,249,249,0.2)"/>
    <g id="delete" transform="translate(16.397 10.704)">
      <path id="Trazado_21" data-name="Trazado 21" d="M3.808,7.379a.373.373,0,0,1,.386-.359h.618a.374.374,0,0,1,.386.359V14.5a.374.374,0,0,1-.386.36H4.195a.374.374,0,0,1-.386-.36V7.379Zm2.7,0A.374.374,0,0,1,6.9,7.02h.618a.374.374,0,0,1,.386.359V14.5a.374.374,0,0,1-.386.36H6.9a.374.374,0,0,1-.386-.36V7.379Zm2.7,0A.373.373,0,0,1,9.6,7.02h.618a.374.374,0,0,1,.386.359V14.5a.374.374,0,0,1-.386.36H9.6a.374.374,0,0,1-.386-.36V7.379Zm-7.4,9.364a.923.923,0,0,0,.95.848h8.878a.923.923,0,0,0,.95-.848l.634-12.459H1.184l.634,12.459ZM13.6.942H9.473V.193A.2.2,0,0,0,9.272,0H4.934a.2.2,0,0,0-.2.193V.942H.6a.59.59,0,0,0-.6.577V3.333H14.205V1.519a.59.59,0,0,0-.6-.578" fill="#fff" fill-rule="evenodd"/>
    </g>
  </g>
</svg>
