<svg xmlns="http://www.w3.org/2000/svg" width="67" height="80" viewBox="0 0 67 80">
    <path fill="#444" fill-rule="evenodd" stroke="#444" stroke-width="2.975" d="M58.169 1.488H8.83c-4.056 0-7.343 3.287-7.343 7.343V71.17c0 4.056 3.287 7.344 7.343 7.344H58.17c4.056 0 7.344-3.288 7.344-7.344V8.83c0-4.056-3.288-7.343-7.344-7.343zM45.016 65.005c2.438 0 4.475 1.833 4.622 4.252l.006.22v.264c0 2.488-2.089 4.473-4.628 4.473-2.438 0-4.476-1.834-4.622-4.252l-.006-.22v-.265c0-2.487 2.089-4.472 4.628-4.472zm-11.516 0c2.438 0 4.475 1.833 4.622 4.252l.006.22v.264c0 2.488-2.088 4.473-4.628 4.473-2.438 0-4.475-1.834-4.622-4.252l-.006-.22v-.265c0-2.487 2.089-4.472 4.628-4.472zm-11.516 0c2.439 0 4.476 1.833 4.622 4.252l.006.22v.264c0 2.488-2.088 4.473-4.628 4.473-2.437 0-4.475-1.834-4.622-4.252l-.006-.22v-.265c0-2.487 2.09-4.472 4.628-4.472zm23.032-10.39c2.438 0 4.475 1.834 4.622 4.252l.006.22v.265c0 2.487-2.089 4.472-4.628 4.472-2.438 0-4.476-1.834-4.622-4.252l-.006-.22v-.264c0-2.487 2.089-4.473 4.628-4.473zm-11.516 0c2.438 0 4.475 1.834 4.622 4.252l.006.22v.265c0 2.487-2.088 4.472-4.628 4.472-2.438 0-4.475-1.834-4.622-4.252l-.006-.22v-.264c0-2.487 2.089-4.473 4.628-4.473zm-11.516 0c2.439 0 4.476 1.834 4.622 4.252l.006.22v.265c0 2.487-2.088 4.472-4.628 4.472-2.437 0-4.475-1.834-4.622-4.252l-.006-.22v-.264c0-2.487 2.09-4.473 4.628-4.473zm23.032-10.39c2.438 0 4.475 1.834 4.622 4.253l.006.22v.264c0 2.487-2.089 4.473-4.628 4.473-2.438 0-4.476-1.834-4.622-4.252l-.006-.22v-.265c0-2.487 2.089-4.472 4.628-4.472zm-11.516 0c2.438 0 4.475 1.834 4.622 4.253l.006.22v.264c0 2.487-2.088 4.473-4.628 4.473-2.438 0-4.475-1.834-4.622-4.252l-.006-.22v-.265c0-2.487 2.089-4.472 4.628-4.472zm-11.516 0c2.439 0 4.476 1.834 4.622 4.253l.006.22v.264c0 2.487-2.088 4.473-4.628 4.473-2.437 0-4.475-1.834-4.622-4.252l-.006-.22v-.265c0-2.487 2.09-4.472 4.628-4.472zM55.51 5.787c3.697 0 6.696 2.99 6.696 6.682v19.74c0 3.691-2.999 6.682-6.696 6.682H12.537c-3.698 0-6.696-2.99-6.696-6.682v-19.74c0-3.692 2.998-6.683 6.696-6.683H55.51zm-.02 5.052H12.537c-.87 0-1.587.678-1.634 1.494l-.004.136v19.74c0 .864.68 1.578 1.502 1.625l.136.004H55.51c.87 0 1.587-.678 1.633-1.494l.005-.135v-19.74c0-.865-.68-1.579-1.502-1.625l-.156-.005z"/>
</svg>
