<svg xmlns="http://www.w3.org/2000/svg" width="67" height="80" viewBox="0 0 67 80">
    <path fill="#444" fill-rule="evenodd" stroke="#444" stroke-width="2.975" d="M58.169 1.488H8.83c-4.056 0-7.343 3.287-7.343 7.343V71.17c0 4.056 3.287 7.344 7.343 7.344H58.17c4.056 0 7.344-3.288 7.344-7.344V8.83c0-4.056-3.288-7.343-7.344-7.343zm-24.472 54.43c4.588 0 8.318 3.665 8.318 8.2 0 4.534-3.73 8.2-8.318 8.2-4.59 0-8.32-3.666-8.32-8.2 0-4.535 3.73-8.2 8.32-8.2zM5.94 46.108h56.039v5.04H5.939v-5.04zm54.097 2.52l-.455-.455h-.578v.91h.578l.455-.456zm-51.122-.455h-.578l-.455.454.455.455h.578v-.91zm35.817-16.007c2.442 0 4.487 1.822 4.634 4.234l.006.22v.263c0 2.48-2.097 4.454-4.64 4.454-2.441 0-4.487-1.823-4.634-4.234l-.007-.22v-.263c0-2.48 2.098-4.454 4.64-4.454zm-11.56 0c2.44 0 4.486 1.822 4.633 4.234l.007.22v.263c0 2.48-2.098 4.454-4.64 4.454-2.442 0-4.487-1.823-4.635-4.234l-.006-.22v-.263c0-2.48 2.097-4.454 4.64-4.454zm-11.562 0c2.442 0 4.487 1.822 4.635 4.234l.006.22v.263c0 2.48-2.097 4.454-4.64 4.454-2.442 0-4.487-1.823-4.635-4.234l-.006-.22v-.263c0-2.48 2.097-4.454 4.64-4.454zm23.122-10.327c2.441 0 4.487 1.823 4.634 4.235l.006.22v.262c0 2.48-2.097 4.454-4.64 4.454-2.441 0-4.487-1.822-4.634-4.234l-.007-.22v-.262c0-2.48 2.098-4.455 4.64-4.455zm-11.56 0c2.44 0 4.486 1.823 4.633 4.235l.007.22v.262c0 2.48-2.098 4.454-4.64 4.454-2.442 0-4.487-1.822-4.635-4.234l-.006-.22v-.262c0-2.48 2.097-4.455 4.64-4.455zm-11.562 0c2.442 0 4.487 1.823 4.635 4.235l.006.22v.262c0 2.48-2.097 4.454-4.64 4.454-2.442 0-4.487-1.822-4.635-4.234l-.006-.22v-.262c0-2.48 2.097-4.455 4.64-4.455zm23.122-10.326c2.442 0 4.487 1.822 4.634 4.234l.006.22v.262c0 2.48-2.097 4.455-4.64 4.455-2.441 0-4.487-1.823-4.634-4.235l-.007-.22v-.262c0-2.48 2.098-4.455 4.64-4.455zm-11.56 0c2.44 0 4.486 1.822 4.633 4.234l.007.22v.262c0 2.48-2.098 4.455-4.64 4.455-2.442 0-4.487-1.823-4.635-4.235l-.006-.22v-.262c0-2.48 2.097-4.455 4.64-4.455zm-11.562 0c2.442 0 4.487 1.822 4.635 4.234l.006.22v.262c0 2.48-2.097 4.455-4.64 4.455-2.442 0-4.487-1.823-4.635-4.235l-.006-.22v-.262c0-2.48 2.097-4.455 4.64-4.455z"/>
</svg>
