<svg xmlns="http://www.w3.org/2000/svg" width="92" height="80" viewBox="0 0 92 80">
    <path fill="#444" fill-rule="evenodd" stroke="#444" stroke-width="3.874" d="M80.005 7.593h-68.01c-5.282 0-9.563 4.282-9.563 9.563v46c0 5.282 4.281 9.563 9.563 9.563h68.01c5.282 0 9.563-4.281 9.563-9.563v-46c0-5.281-4.281-9.563-9.563-9.563zM46 56.907c3.43 0 6.203 2.802 6.203 6.25 0 3.446-2.772 6.249-6.203 6.249-3.43 0-6.203-2.803-6.203-6.25s2.772-6.25 6.203-6.25zm-11.376 1.437c2.645 0 4.78 2.16 4.78 4.812 0 2.653-2.135 4.812-4.78 4.812-2.646 0-4.781-2.159-4.781-4.812 0-2.653 2.135-4.812 4.78-4.812zm22.752 0c2.646 0 4.781 2.16 4.781 4.812 0 2.653-2.135 4.812-4.78 4.812-2.646 0-4.782-2.159-4.782-4.812 0-2.653 2.136-4.812 4.781-4.812zm21.9-47.229c4.917 0 8.911 3.951 8.911 8.836v24.598c0 4.885-3.994 8.836-8.91 8.836H12.723c-4.916 0-8.91-3.951-8.91-8.836V19.951c0-4.885 3.994-8.836 8.91-8.836h66.554zm-.023 6.719h-66.53c-1.158 0-2.103.892-2.157 1.962l-.004.155v24.598c0 1.125.901 2.059 2.004 2.113l.157.004h66.554c1.158 0 2.103-.892 2.157-1.962l.004-.155V19.951c0-1.125-.901-2.059-2.004-2.113l-.18-.004z"/>
</svg>
