<?xml version="1.0" encoding="UTF-8"?>
<svg id="Capa_1" xmlns="http://www.w3.org/2000/svg" version="1.1" viewBox="0 0 78 79">
  <!-- Generator: Adobe Illustrator 29.8.2, SVG Export Plug-In . SVG Version: 2.1.1 Build 3)  -->
  <defs>
    <style>
      .st0 {
        fill: #fff;
        fill-rule: evenodd;
      }
    </style>
  </defs>
  <path class="st0" d="M39,2C18.3,2,1.5,18.8,1.5,39.5s16.8,37.5,37.5,37.5,37.5-16.8,37.5-37.5S59.7,2,39,2ZM35.4,19.1c0-.6.2-1.1.6-1.5.4-.4.9-.6,1.5-.6h2.9c.6,0,1.1.2,1.5.6.4.4.6.9.6,1.5v21.5c0,.6-.2,1.1-.6,1.5-.4.4-.9.6-1.5.6h-2.9c-.6,0-1.1-.2-1.5-.6-.4-.4-.6-.9-.6-1.5v-21.5ZM58.2,51c-2,3.4-4.7,6.1-8.1,8.1-3.4,2-7.1,3-11.1,3s-7.7-1-11.2-3c-3.4-2-6.1-4.7-8.1-8.1-2-3.4-3-7.1-3-11.2s.8-7,2.5-10.2c1.7-3.2,3.9-5.8,6.8-7.9.5-.4,1.1-.5,1.7-.3.6.1,1.1.5,1.4,1l1.4,2.5c.2.5.3,1,.2,1.5-.1.5-.4,1-.8,1.3-1.9,1.4-3.4,3.2-4.5,5.3-1.1,2.1-1.6,4.4-1.6,6.8s.7,5.2,2,7.5c1.3,2.3,3.2,4.2,5.5,5.5,2.3,1.3,4.8,2,7.5,2s5.2-.7,7.6-2c2.3-1.3,4.2-3.2,5.5-5.5,1.3-2.3,2-4.9,2-7.6s-.5-4.6-1.6-6.7c-1.1-2.1-2.6-3.9-4.5-5.3-.4-.3-.7-.7-.8-1.3-.1-.5,0-1,.2-1.5l1.4-2.5c.3-.5.8-.9,1.4-1,.6-.1,1.2,0,1.7.3,2.9,2,5.1,4.6,6.8,7.8,1.7,3.2,2.5,6.6,2.5,10.3s-1,7.7-3,11.1Z"/>
</svg>