<svg xmlns="http://www.w3.org/2000/svg" width="78" height="79" viewBox="0 0 78 79">
    <path fill="#FFF" fill-rule="evenodd" d="M41.5 45c1.042 0 1.927-.365 2.656-1.094.73-.729 1.094-1.614 1.094-2.656V3.75c0-1.042-.365-1.927-1.094-2.656C43.427.364 42.542 0 41.5 0h-5c-1.042 0-1.927.365-2.656 1.094-.73.729-1.094 1.614-1.094 2.656v37.5c0 1.042.365 1.927 1.094 2.656.729.73 1.614 1.094 2.656 1.094h5zm-2.422 33.75c7.031 0 13.49-1.745 19.375-5.234 5.886-3.49 10.573-8.204 14.063-14.141C76.006 53.437 77.75 46.979 77.75 40c0-6.354-1.458-12.318-4.375-17.89C70.458 16.535 66.5 11.98 61.5 8.437c-.938-.626-1.953-.808-3.047-.547-1.094.26-1.9.859-2.422 1.796l-2.5 4.376c-.416.833-.52 1.718-.312 2.656.208.937.677 1.666 1.406 2.187 3.333 2.5 5.938 5.6 7.813 9.297 1.874 3.698 2.812 7.578 2.812 11.64 0 4.792-1.172 9.22-3.516 13.282-2.343 4.063-5.547 7.266-9.609 9.61-4.063 2.343-8.464 3.515-13.203 3.515-4.74 0-9.115-1.172-13.125-3.516-4.01-2.343-7.188-5.547-9.531-9.609C13.922 49.062 12.75 44.687 12.75 40c0-4.27.938-8.23 2.813-11.875 1.874-3.646 4.479-6.719 7.812-9.219.73-.52 1.198-1.25 1.406-2.187.209-.938.104-1.823-.312-2.657l-2.5-4.374c-.521-.938-1.328-1.537-2.422-1.797s-2.11-.079-3.047.546c-5 3.646-8.958 8.23-11.875 13.75C1.708 27.709.25 33.647.25 40c0 7.083 1.745 13.568 5.234 19.453 3.49 5.886 8.204 10.573 14.141 14.063 5.938 3.49 12.422 5.234 19.453 5.234z"/>
</svg>
