<svg xmlns="http://www.w3.org/2000/svg" width="18" height="18" viewBox="0 0 18 18">
  <g id="Grupo_11" data-name="Grupo 11" transform="translate(-3 -3)">
    <path id="Trazado_14" data-name="Trazado 14" d="M4,21a1,1,0,1,1,0-2H5V5A2.006,2.006,0,0,1,7,3H17a2.006,2.006,0,0,1,2,2V19h1a1,1,0,1,1,0,2Zm13-2V5H12.5V3.9a2.988,2.988,0,0,1,1.8,1.025A2.884,2.884,0,0,1,15,6.85v11.1a1.939,1.939,0,0,1-.475,1.287,1.961,1.961,0,0,1-1.2.688V19Zm-6-6a.982.982,0,1,0-.712-.288A.968.968,0,0,0,11,13Z" fill="#575757"/>
  </g>
</svg>
