<svg xmlns="http://www.w3.org/2000/svg" xmlns:xlink="http://www.w3.org/1999/xlink" width="81" height="80" viewBox="0 0 81 80">
    <defs>
        <path id="prefix__a" d="M0.136 0.201L27.462 0.201 27.462 23.252 0.136 23.252z"/>
    </defs>
    <g fill="none" fill-rule="evenodd">
        <g transform="translate(52.587 21.84)">
            <mask id="prefix__b" fill="#fff">
                <use xlink:href="#prefix__a"/>
            </mask>
            <path fill="#444" d="M16.355 14.893l-3.033 2.953c-1.27 1.236-1.27 3.242 0 4.479s3.33 1.237 4.601 0l8.586-8.359c1.27-1.237 1.27-3.242 0-4.479l-8.586-8.359c-1.27-1.237-3.33-1.236-4.6 0-1.271 1.237-1.271 3.242 0 4.479l3.032 2.952H3.389C1.593 8.56.136 9.977.136 11.726c0 1.75 1.457 3.167 3.253 3.167h12.966z" mask="url(#prefix__b)"/>
        </g>
        <g fill="#444">
            <path d="M23.251 10.404L0 4.5v60.51l19.766 14.212c1.883 1.354 4.507.925 5.861-.959.514-.714.79-1.572.79-2.451V14.475c0-1.922-1.304-3.598-3.166-4.071z"/>
            <path d="M43.096 0c2.32 0 4.2 1.88 4.2 4.2v55.369c0 2.32-1.88 4.2-4.2 4.2H32.94V10.387c0-1.918-1.299-3.593-3.157-4.069L5.539.111V0z"/>
        </g>
    </g>
</svg>
