<svg xmlns="http://www.w3.org/2000/svg" width="107" height="107" viewBox="0 0 107 107">
    <g fill="#FFF">
        <path d="M40.286 72C42.337 72 44 73.79 44 76c0 2.138-1.557 3.884-3.516 3.994l-.198.006H3.714C1.663 80 0 78.21 0 76c0-2.138 1.557-3.884 3.516-3.994L3.714 72h36.572zM40.286 85C42.337 85 44 86.79 44 89c0 2.138-1.557 3.884-3.516 3.994l-.198.006H3.714C1.663 93 0 91.21 0 89c0-2.138 1.557-3.884 3.516-3.994L3.714 85h36.572zM40.286 99c2.051 0 3.714 1.79 3.714 4 0 2.138-1.557 3.884-3.516 3.994l-.198.006H3.714C1.663 107 0 105.21 0 103c0-2.138 1.557-3.884 3.516-3.994L3.714 99h36.572z"/>
        <path d="M53.5 0C83.047 0 107 24.172 107 53.99c0 24.185-15.896 45.223-38.574 51.86-1.98.58-4.052-.57-4.626-2.568-.574-1.998.565-4.088 2.546-4.667C85.853 92.906 99.533 74.8 99.533 53.99c0-25.657-20.61-46.457-46.033-46.457-25.423 0-46.033 20.8-46.033 46.457 0 2.08-1.671 3.767-3.733 3.767C1.672 57.757 0 56.07 0 53.99 0 24.172 23.953 0 53.5 0z"/>
        <path d="M53.73 21c1.994 0 3.622 1.561 3.725 3.526l.005.197V53.6l16.792 10.523c1.745 1.093 2.272 3.39 1.177 5.133-1.095 1.741-3.398 2.267-5.143 1.174L51.747 58.813c-1.023-.64-1.668-1.734-1.74-2.928L50 55.66V24.723C50 22.667 51.67 21 53.73 21z"/>
    </g>
</svg>
