<svg xmlns="http://www.w3.org/2000/svg" width="92" height="112" viewBox="0 0 92 112">
    <g fill="none" fill-rule="evenodd">
        <g>
            <path fill="#FFF" d="M0.106 31.314H56.52V33.834H0.106z" transform="translate(18 20)"/>
            <path fill="#FFF" stroke="#FFF" stroke-width="1.333" d="M40.012 65.712c1.99 0 3.603 1.562 3.603 3.49h0v.308c0 1.927-1.613 3.49-3.603 3.49-1.99 0-3.604-1.563-3.604-3.49h0v-.308c0-1.927 1.614-3.49 3.604-3.49zm-12.012 0c1.99 0 3.604 1.562 3.604 3.49h0v.308C31.604 71.437 29.99 73 28 73c-1.99 0-3.604-1.563-3.604-3.49h0v-.308c0-1.927 1.614-3.49 3.604-3.49zm-12.012 0c1.99 0 3.604 1.562 3.604 3.49h0v.308c0 1.927-1.613 3.49-3.604 3.49-1.99 0-3.603-1.563-3.603-3.49h0v-.308c0-1.927 1.614-3.49 3.603-3.49zM40.012 54.78c1.99 0 3.603 1.563 3.603 3.49h0v.309c0 1.926-1.613 3.49-3.603 3.49-1.99 0-3.604-1.564-3.604-3.49h0v-.309c0-1.927 1.614-3.49 3.604-3.49zM28 54.78c1.99 0 3.604 1.563 3.604 3.49h0v.309c0 1.926-1.613 3.49-3.604 3.49-1.99 0-3.604-1.564-3.604-3.49h0v-.309c0-1.927 1.614-3.49 3.604-3.49zm-12.012 0c1.99 0 3.604 1.563 3.604 3.49h0v.309c0 1.926-1.613 3.49-3.604 3.49-1.99 0-3.603-1.564-3.603-3.49h0v-.309c0-1.927 1.614-3.49 3.603-3.49zm24.024-10.932c1.99 0 3.603 1.562 3.603 3.49h0v.309c0 1.926-1.613 3.49-3.603 3.49-1.99 0-3.604-1.564-3.604-3.49h0v-.309c0-1.927 1.614-3.49 3.604-3.49zm-12.012 0c1.99 0 3.604 1.562 3.604 3.49h0v.309c0 1.926-1.613 3.49-3.604 3.49-1.99 0-3.604-1.564-3.604-3.49h0v-.309c0-1.927 1.614-3.49 3.604-3.49zm-12.012 0c1.99 0 3.604 1.562 3.604 3.49h0v.309c0 1.926-1.613 3.49-3.604 3.49-1.99 0-3.603-1.564-3.603-3.49h0v-.309c0-1.927 1.614-3.49 3.603-3.49z" transform="translate(18 20)"/>
            <path stroke="#FFF" stroke-width="5" d="M18.275 10.111c0 5.565 4.503 10.091 10.039 10.091 5.534 0 10.038-4.526 10.038-10.09C38.352 4.546 33.848.02 28.314.02c-5.536 0-10.039 4.527-10.039 10.091z" transform="translate(18 20)"/>
        </g>
        <rect width="84.5" height="104.5" x="3.75" y="3.75" stroke="#FFF" stroke-width="7.5" rx="9"/>
    </g>
</svg>
