<svg xmlns="http://www.w3.org/2000/svg" width="76" height="76" viewBox="0 0 76 76">
    <g fill="none" fill-rule="evenodd" stroke="#FFF" stroke-linecap="round" stroke-width="8">
        <path stroke-linejoin="round" d="M24.425 7L12.425 19 24.425 31" transform="translate(4 4) rotate(-135 18.425 19)"/>
        <path d="M-3.756 12.316L26 12.383" transform="translate(4 4) rotate(-135 11 12.282)"/>
        <path stroke-linejoin="round" d="M54.99 37.565L42.99 49.565 54.99 61.565" transform="translate(4 4) rotate(45 48.99 49.565)"/>
        <path d="M41.658 56.316L71.414 56.383" transform="translate(4 4) rotate(45 56.414 56.282)"/>
        <path stroke-linejoin="round" d="M25.425 37.565L13.425 49.565 25.425 61.565" transform="translate(4 4) rotate(135 19.425 49.565)"/>
        <path d="M-2.049 57.023L27.707 57.09" transform="translate(4 4) rotate(135 12.707 56.99)"/>
        <path stroke-linejoin="round" d="M53.99 7L41.99 19 53.99 31" transform="translate(4 4) rotate(-45 47.99 19)"/>
        <path d="M39.951 11.609L69.707 11.676" transform="translate(4 4) rotate(-45 54.707 11.575)"/>
    </g>
</svg>
