<svg xmlns="http://www.w3.org/2000/svg" width="80" height="80" viewBox="0 0 80 80">
    <g fill="#444" fill-rule="evenodd">
        <path d="M33.54 21c1.358 0 2.46 1.104 2.46 2.468v50.034c0 1.364-1.102 2.468-2.46 2.468H15.392v1.562c0 1.362-1.1 2.468-2.46 2.468H2.46C1.1 80 0 78.894 0 77.532V28.72C0 24.464 3.452 21 7.695 21c4.244 0 7.697 3.464 7.697 7.72v.776C20.372 24.975 26.772 21 33.54 21zM29.5 50c-1.38 0-2.5 1.12-2.5 2.5s1.12 2.5 2.5 2.5 2.5-1.12 2.5-2.5-1.12-2.5-2.5-2.5zM72.305 21C76.548 21 80 24.464 80 28.72v48.812C80 78.894 78.9 80 77.54 80H67.069c-1.36 0-2.46-1.106-2.46-2.468V75.97H46.46c-1.358 0-2.46-1.104-2.46-2.468V23.468C44 22.104 45.102 21 46.46 21c6.77 0 13.172 3.978 18.149 8.496v-.775c0-4.257 3.452-7.721 7.696-7.721zM50.5 50c-1.38 0-2.5 1.12-2.5 2.5s1.12 2.5 2.5 2.5 2.5-1.12 2.5-2.5-1.12-2.5-2.5-2.5zM22.982 17.276c.93.965 2.437.965 3.367 0 .93-.966.93-2.532 0-3.498l-2.22-2.305h9.49C34.934 11.473 36 10.366 36 9c0-1.366-1.066-2.473-2.381-2.473h-9.49l2.22-2.305c.93-.966.93-2.532 0-3.498-.93-.965-2.438-.965-3.367 0l-6.285 6.527c-.93.966-.93 2.532 0 3.498l6.285 6.527zM46.38 11.473h9.49l-2.219 2.305c-.93.966-.93 2.532 0 3.498.93.965 2.437.965 3.367 0l6.285-6.527c.93-.966.93-2.532 0-3.498L57.018.724c-.93-.966-2.437-.965-3.367 0-.93.966-.93 2.532 0 3.498l2.22 2.305h-9.49C45.066 6.527 44 7.634 44 9c0 1.366 1.066 2.473 2.38 2.473"/>
    </g>
</svg>
