<svg xmlns="http://www.w3.org/2000/svg" width="826" height="826" viewBox="0 0 826 826">
    <g fill="#FFF" fill-rule="evenodd">
        <path d="M413 0c228.094 0 413 184.906 413 413S641.094 826 413 826 0 641.094 0 413 184.906 0 413 0zm153.169 211H258.83c-4.877 0-8.831 3.954-8.831 8.831V600.17c0 4.877 3.954 8.831 8.831 8.831H566.17c4.877 0 8.831-3.954 8.831-8.831V219.83c0-4.877-3.954-8.831-8.831-8.831z"/>
        <g>
            <g>
                <path d="M127.344 50.52c-8.437 0-15.281 6.5-15.281 14.514v1.283c0 8.014 6.844 14.514 15.28 14.514 8.442 0 15.282-6.5 15.282-14.514v-1.283c0-8.014-6.84-14.515-15.281-14.515M71.313 50.52c-8.438 0-15.282 6.5-15.282 14.514v1.283c0 8.014 6.844 14.514 15.282 14.514 8.44 0 15.28-6.5 15.28-14.514v-1.283c0-8.014-6.84-14.515-15.28-14.515M15.281 50.52C6.844 50.52 0 57.02 0 65.033v1.283c0 8.014 6.844 14.514 15.281 14.514 8.441 0 15.281-6.5 15.281-14.514v-1.283c0-8.014-6.84-14.515-15.28-14.515M127.344 101.039c-8.437 0-15.281 6.5-15.281 14.514v1.284c0 8.013 6.844 14.514 15.28 14.514 8.442 0 15.282-6.5 15.282-14.514v-1.284c0-8.017-6.84-14.514-15.281-14.514M71.313 101.039c-8.438 0-15.282 6.5-15.282 14.514v1.284c0 8.013 6.844 14.514 15.282 14.514 8.44 0 15.28-6.5 15.28-14.514v-1.284c0-8.017-6.84-14.514-15.28-14.514M15.281 101.039c-8.437 0-15.281 6.5-15.281 14.514v1.284c0 8.013 6.844 14.514 15.281 14.514 8.441 0 15.281-6.5 15.281-14.514v-1.284c0-8.017-6.84-14.514-15.28-14.514M127.344 0c-8.437 0-15.281 6.5-15.281 14.514v1.284c0 8.013 6.844 14.514 15.28 14.514 8.442 0 15.282-6.5 15.282-14.514v-1.284c0-8.017-6.84-14.514-15.281-14.514M71.313 0C62.874 0 56.03 6.5 56.03 14.514v1.284c0 8.013 6.844 14.514 15.282 14.514 8.44 0 15.28-6.5 15.28-14.514v-1.284C86.594 6.497 79.754 0 71.314 0M0 14.514v1.284c0 8.013 6.844 14.514 15.281 14.514 8.441 0 15.281-6.5 15.281-14.514v-1.284C30.563 6.497 23.723 0 15.283 0 6.843 0 0 6.5 0 14.514z" transform="translate(283 254) translate(56.031 186.922)"/>
            </g>
            <path fill-rule="nonzero" d="M234.438 0c13.997 0 25.343 11.31 25.343 25.26v95.987c0 13.95-11.346 25.26-25.343 25.26H25.343C11.346 146.506 0 135.196 0 121.246V25.26C0 11.31 11.346 0 25.343 0h209.095zm0 10.104H25.343c-8.108 0-14.734 6.326-15.182 14.296l-.024.86v95.987c0 8.081 6.347 14.686 14.343 15.132l.863.024h209.095c8.109 0 14.735-6.326 15.182-14.296l.024-.86V25.26c0-8.082-6.346-14.686-14.343-15.132l-.863-.024z" transform="translate(283 254)"/>
        </g>
    </g>
</svg>
