<svg xmlns="http://www.w3.org/2000/svg" width="826" height="826" viewBox="0 0 826 826">
    <path fill="#FFF" fill-rule="evenodd" d="M413 0c228.094 0 413 184.906 413 413S641.094 826 413 826 0 641.094 0 413 184.906 0 413 0zm153.169 211H258.83c-4.79 0-8.69 3.814-8.827 8.57l-.004.261V600.17c0 4.79 3.814 8.69 8.57 8.827l.261.004H566.17c4.79 0 8.69-3.814 8.827-8.57l.004-.261V219.83c0-4.877-3.954-8.831-8.831-8.831zM413.235 497.057c18.289 0 33.115 14.97 33.115 33.437 0 18.466-14.826 33.437-33.115 33.437-18.29 0-33.115-14.97-33.115-33.437s14.826-33.437 33.115-33.437zm129.888-48.87v10.289h-257.23v-10.288h257.23zm-76.394-69.445c8.442 0 15.284 6.615 15.284 14.779v1.307c0 8.16-6.842 14.779-15.284 14.779-8.439 0-15.284-6.62-15.284-14.78v-1.306c0-8.16 6.845-14.78 15.284-14.78zm-56.041 0c8.442 0 15.284 6.615 15.284 14.779v1.307c0 8.16-6.842 14.779-15.284 14.779-8.44 0-15.284-6.62-15.284-14.78v-1.306c0-8.16 6.845-14.78 15.284-14.78zm-56.042 0c8.443 0 15.284 6.615 15.284 14.779v1.307c0 8.16-6.84 14.779-15.284 14.779-8.438 0-15.284-6.62-15.284-14.78v-1.306c0-8.16 6.846-14.78 15.284-14.78zM466.73 327.3c8.442 0 15.284 6.619 15.284 14.779v1.306c0 8.16-6.842 14.78-15.284 14.78-8.439 0-15.284-6.62-15.284-14.78v-1.306c0-8.16 6.845-14.78 15.284-14.78zm-56.041 0c8.442 0 15.284 6.619 15.284 14.779v1.306c0 8.16-6.842 14.78-15.284 14.78-8.44 0-15.284-6.62-15.284-14.78v-1.306c0-8.16 6.845-14.78 15.284-14.78zm-56.042 0c8.443 0 15.284 6.619 15.284 14.779v1.306c0 8.16-6.84 14.78-15.284 14.78-8.438 0-15.284-6.62-15.284-14.78v-1.306c0-8.16 6.846-14.78 15.284-14.78zm112.083-51.442c8.442 0 15.284 6.615 15.284 14.78v1.306c0 8.16-6.842 14.779-15.284 14.779-8.439 0-15.284-6.62-15.284-14.779v-1.307c0-8.16 6.845-14.779 15.284-14.779zm-56.041 0c8.442 0 15.284 6.615 15.284 14.78v1.306c0 8.16-6.842 14.779-15.284 14.779-8.44 0-15.284-6.62-15.284-14.779v-1.307c0-8.16 6.845-14.779 15.284-14.779zm-56.042 0c8.443 0 15.284 6.615 15.284 14.78v1.306c0 8.16-6.84 14.779-15.284 14.779-8.438 0-15.284-6.62-15.284-14.779v-1.307c0-8.16 6.846-14.779 15.284-14.779z"/>
</svg>
