<svg xmlns="http://www.w3.org/2000/svg" width="826" height="826" viewBox="0 0 826 826">
    <g fill="#FFF" fill-rule="evenodd">
        <path d="M413 0c228.094 0 413 184.906 413 413S641.094 826 413 826 0 641.094 0 413 184.906 0 413 0zm190.669 262.5H223.33c-4.877 0-8.831 3.954-8.831 8.831V554.67c0 4.877 3.954 8.831 8.831 8.831H603.67c4.877 0 8.831-3.954 8.831-8.831V271.33c0-4.877-3.954-8.831-8.831-8.831z"/>
        <path d="M412.721 494.029c10.259 0 18.575 8.38 18.575 18.72 0 10.339-8.316 18.72-18.575 18.72-10.259 0-18.575-8.381-18.575-18.72 0-10.34 8.316-18.72 18.575-18.72zm-49.534 6.24c6.84 0 12.384 5.587 12.384 12.48 0 6.892-5.544 12.48-12.384 12.48-6.839 0-12.383-5.588-12.383-12.48 0-6.893 5.544-12.48 12.383-12.48zm99.068 0c6.839 0 12.383 5.587 12.383 12.48 0 6.892-5.544 12.48-12.383 12.48-6.84 0-12.384-5.588-12.384-12.48 0-6.893 5.544-12.48 12.384-12.48zM557.172 295c16.718 0 30.27 13.448 30.27 30.036V432.14c0 16.588-13.552 30.036-30.27 30.036H268.27c-16.717 0-30.27-13.448-30.27-30.036V325.036C238 308.448 251.553 295 268.27 295h288.902zm0 12.383H268.27c-9.527 0-17.305 7.432-17.768 16.772l-.022.88V432.14c0 9.454 7.49 17.172 16.903 17.63l.887.022h288.902c9.527 0 17.306-7.431 17.768-16.771l.022-.881V325.036c0-9.454-7.49-17.172-16.902-17.631l-.888-.022z"/>
    </g>
</svg>
