<svg xmlns="http://www.w3.org/2000/svg" width="826" height="826" viewBox="0 0 826 826">
    <g fill="#FFF" fill-rule="evenodd">
        <path d="M413 0c228.094 0 413 184.906 413 413S641.094 826 413 826 0 641.094 0 413 184.906 0 413 0zM299.719 215.223c-20.5-6.268-42.198 5.27-48.465 25.768l-44.537 145.676c-6.267 20.499 5.27 42.197 25.769 48.464l108.301 33.11-7.553 15.394-.135.285c-2.81 6.105-.33 13.406 5.638 16.43l2.898 1.47-15.837 28.663h-93.381l-.263-.51c-8.772-16.792-26.142-28.237-46.154-28.237v106.17l.592-.003c19.498-.22 36.427-11.3 45.217-27.567h108.347l.429-.004c8.701-.153 16.685-4.985 20.957-12.716l24.048-43.52 4.18 2.118.28.138c6.006 2.855 13.192.334 16.169-5.73l19.137-26.525L484.4 512.15c20.498 6.267 42.197-5.27 48.464-25.769l2.398-7.844L573.98 500.2c1.462.819 3.008 1.478 4.61 1.968 12.43 3.8 25.588-3.195 29.388-15.625l33.361-109.118c.49-1.603.807-3.253.947-4.923 1.081-12.953-8.543-24.33-21.496-25.411l-44.213-3.692.824-2.694c6.267-20.5-5.27-42.197-25.769-48.465z"/>
        <ellipse cx="257.052" cy="392.322" rx="14.21" ry="14.372"/>
        <ellipse cx="292.578" cy="406.694" rx="14.21" ry="14.372"/>
    </g>
</svg>
