<svg xmlns="http://www.w3.org/2000/svg" width="69" height="96" viewBox="0 0 69 96">
    <path fill="#FFF" fill-rule="evenodd" d="M69 34.5c0-2.485-2.015-4.5-4.5-4.5S60 32.015 60 34.5c0 .205.034.401.06.6-.038.284-.06.583-.06.9v9c0 13.233-11.256 23.982-25.07 23.982C21.112 68.982 9 58.233 9 45v-9c0-.254-.038-.485-.079-.714.046-.256.08-.517.08-.786C9 32.015 6.986 30 4.5 30 2.014 30 0 32.015 0 34.5c0 .27.035.53.08.786-.041.229-.08.46-.08.714v10.2C0 63.09 13.309 75.656 30 78v9H15c-.267 0-.509.038-.751.075-.245-.04-.492-.075-.749-.075-2.485 0-4.5 2.015-4.5 4.5 0 2.486 2.015 4.5 4.5 4.5.257 0 .504-.034.749-.075.242.037.484.075.752.075h39c.267 0 .508-.038.75-.075.245.041.493.075.75.075C57.985 96 60 93.986 60 91.5c0-2.485-2.014-4.5-4.5-4.5-.256 0-.504.034-.749.075-.242-.037-.483-.075-.75-.075H39v-9C55.69 75.656 69 63.09 69 46.2V36c0-.257-.038-.495-.077-.73.043-.252.077-.506.077-.77M34.5 63C45.27 63 54 54.27 54 43.5v-24C54 8.73 45.27 0 34.5 0 23.731 0 15 8.73 15 19.5v24C15 54.27 23.732 63 34.5 63"/>
</svg>
