<svg xmlns="http://www.w3.org/2000/svg" width="66" height="63" viewBox="0 0 66 63">
    <g fill="#FFF">
        <path d="M60.572 26.988H4.428c-2.34 0-4.237 1.908-4.237 4.262 0 2.354 1.897 4.262 4.237 4.262h56.144c2.34 0 4.237-1.908 4.237-4.262 0-2.354-1.897-4.262-4.237-4.262z" transform="translate(.5 .167)"/>
        <path d="M36.762 58.263V4.237C36.762 1.897 34.854 0 32.5 0c-2.354 0-4.262 1.897-4.262 4.237v54.026c0 2.34 1.908 4.237 4.262 4.237 2.354 0 4.262-1.897 4.262-4.237z" transform="translate(.5 .167)"/>
    </g>
</svg>
