<svg xmlns="http://www.w3.org/2000/svg" xmlns:xlink="http://www.w3.org/1999/xlink" width="91" height="88" viewBox="0 0 91 88">
    <defs>
        <path id="prefix__a" d="M17.34.442C7.939.726.571 8.345.512 17.648c.003.301.008.601.019.911.016.311.038.611.062.911.132 2.355.349 3.609.712 5.894 0 0 1.77 11.462 4.903 17.763 2.188 4.398 4.754 8.584 7.66 12.49 2.097 2.815 4.368 5.483 6.801 7.983 3.827 3.93 8.053 7.437 12.62 10.421 10.941 7.147 23.833 11.287 37.863 11.044.3.001.602.001.911-.007 9.71-.292 17.235-8.402 16.808-18.117-.045-1.028-.177-2.044-.395-3.027-1.083-2.015-3.817-3.9-6.077-4.189L62.461 57.18c-3.607-.46-7.062 1.682-8.075 5.153-.011.042-.024.083-.036.124-.384 1.354-1.832 2.081-3.157 1.567-6.175-2.397-11.797-5.949-16.587-10.402-4.787-4.452-8.734-9.793-11.575-15.776-.611-1.285.007-2.784 1.331-3.269l.119-.045c3.382-1.264 5.26-4.871 4.535-8.435l-4.36-21.448C24.228 2.54 22.505.921 20.375.624c-.818-.129-1.661-.189-2.512-.189-.174 0-.349.002-.523.007z"/>
    </defs>
    <g fill="none" fill-rule="evenodd" transform="translate(1.5 .5)">
        <mask id="prefix__b" fill="#fff">
            <use xlink:href="#prefix__a"/>
        </mask>
        <path fill="#FEFEFE" d="M60.439 110.451L-23 27.012 18.012 -14 101.451 69.438z" mask="url(#prefix__b)"/>
    </g>
</svg>
