<svg xmlns="http://www.w3.org/2000/svg" width="93" height="74" viewBox="0 0 93 74">
    <path fill="#FFF" fill-rule="evenodd" d="M79.398 72.411c-.756.902-1.849 1.444-3.02 1.495-.057.002-.115.004-.174.004-1.107 0-2.17-.442-2.957-1.237l-.548-.555c-1.535-1.55-1.64-4.029-.244-5.707C79.196 58.307 82.91 48.015 82.91 37.43c0-11.01-3.976-21.61-11.193-29.847-1.463-1.672-1.39-4.203.168-5.783l.548-.555c.813-.826 1.87-1.28 3.082-1.242 1.15.033 2.239.547 3.004 1.417 8.724 9.928 13.53 22.718 13.53 36.01.001 12.79-4.491 25.212-12.65 34.982zM62.116 59.353c-.102.008-.2.012-.3.012-1.105 0-2.17-.44-2.956-1.237l-.559-.568c-1.466-1.478-1.637-3.82-.404-5.503 3.13-4.266 4.783-9.323 4.783-14.628 0-5.706-1.876-11.058-5.426-15.478-1.351-1.68-1.226-4.12.288-5.65l.558-.565c.835-.844 1.954-1.304 3.165-1.23 1.18.06 2.28.62 3.029 1.544 4.924 6.09 7.525 13.484 7.525 21.38 0 7.354-2.3 14.354-6.654 20.24-.727.981-1.839 1.596-3.049 1.683zm-16.064 6.603c0 1.64-.937 3.128-2.403 3.823-.567.271-1.175.402-1.778.402-.956 0-1.903-.333-2.668-.973l-22.852-19.14H4.181C1.87 50.07 0 48.178 0 45.844V29.011c0-2.334 1.872-4.226 4.18-4.226h12.172l22.852-19.14c1.249-1.046 2.98-1.269 4.446-.569 1.465.695 2.403 2.185 2.403 3.823l-.001 57.057z"/>
</svg>
