<svg xmlns="http://www.w3.org/2000/svg" width="80" height="80" viewBox="0 0 80 80">
  <g id="Grupo_4" data-name="Grupo 4" transform="translate(-2.48 -2)">
    <path id="Trazado_4" data-name="Trazado 4" d="M37.543,82a7.152,7.152,0,0,1-4.885-1.8,7.252,7.252,0,0,1-2.468-4.4l-.945-6.6A16.272,16.272,0,0,1,26.671,68q-1.208-.7-2.363-1.5L17.8,69.1a7.161,7.161,0,0,1-5.252.2,7.673,7.673,0,0,1-4.1-3.2L3.509,57.9a6.091,6.091,0,0,1-.84-4.9,7.552,7.552,0,0,1,2.836-4.3l5.567-4a9.1,9.1,0,0,1-.105-1.35v-2.7a9.1,9.1,0,0,1,.105-1.35l-5.567-4A7.551,7.551,0,0,1,2.669,31a6.091,6.091,0,0,1,.84-4.9l4.937-8.2a7.673,7.673,0,0,1,4.1-3.2,7.161,7.161,0,0,1,5.252.2l6.513,2.6q1.155-.8,2.416-1.5a21.6,21.6,0,0,1,2.521-1.2l.945-6.6a7.252,7.252,0,0,1,2.468-4.4A7.152,7.152,0,0,1,37.543,2h9.874A7.152,7.152,0,0,1,52.3,3.8,7.252,7.252,0,0,1,54.77,8.2l.945,6.6A16.31,16.31,0,0,1,58.289,16q1.208.7,2.363,1.5l6.513-2.6a7.161,7.161,0,0,1,5.252-.2,7.675,7.675,0,0,1,4.1,3.2l4.937,8.2a6.091,6.091,0,0,1,.84,4.9,7.552,7.552,0,0,1-2.836,4.3l-5.567,4a9.14,9.14,0,0,1,.105,1.35v2.7a4.7,4.7,0,0,1-.21,1.35l5.567,4A7.552,7.552,0,0,1,82.186,53a6.091,6.091,0,0,1-.84,4.9L76.3,66.1a7.675,7.675,0,0,1-4.1,3.2,7.161,7.161,0,0,1-5.252-.2l-6.3-2.6q-1.156.8-2.416,1.5a21.559,21.559,0,0,1-2.521,1.2l-.945,6.6A7.253,7.253,0,0,1,52.3,80.2,7.152,7.152,0,0,1,47.417,82ZM42.69,56a14.539,14.539,0,0,0,10.4-4.1,13.532,13.532,0,0,0,0-19.8A14.538,14.538,0,0,0,42.69,28a14.487,14.487,0,0,0-10.452,4.1,13.646,13.646,0,0,0,0,19.8A14.487,14.487,0,0,0,42.69,56Z" transform="translate(0 0)" fill="#d5d5d5"/>
  </g>
</svg>
