<svg xmlns="http://www.w3.org/2000/svg" width="15" height="18" viewBox="0 0 15 18">
  <g id="Grupo_12" data-name="Grupo 12" transform="translate(-3.833 -2.5)">
    <path id="Trazado_15" data-name="Trazado 15" d="M6.646,20.5a1.751,1.751,0,0,1-1.324-.588A1.992,1.992,0,0,1,4.771,18.5V5.5A.879.879,0,0,1,4.1,5.213a1,1,0,0,1-.27-.713,1,1,0,0,1,.27-.712A.879.879,0,0,1,4.771,3.5h3.75a1,1,0,0,1,.27-.712A.879.879,0,0,1,9.458,2.5h3.75a.879.879,0,0,1,.668.287,1,1,0,0,1,.27.712H17.9a.879.879,0,0,1,.668.288,1,1,0,0,1,.27.712,1,1,0,0,1-.27.713A.879.879,0,0,1,17.9,5.5v13a1.992,1.992,0,0,1-.551,1.413,1.751,1.751,0,0,1-1.324.588Zm2.812-4a.879.879,0,0,0,.668-.288,1,1,0,0,0,.27-.713v-7a1,1,0,0,0-.27-.712.92.92,0,0,0-1.336,0,1,1,0,0,0-.27.712v7a1,1,0,0,0,.27.713A.879.879,0,0,0,9.458,16.5Zm3.75,0a.879.879,0,0,0,.668-.288,1,1,0,0,0,.27-.713v-7a1,1,0,0,0-.27-.712.92.92,0,0,0-1.336,0,1,1,0,0,0-.269.712v7a1,1,0,0,0,.269.713A.879.879,0,0,0,13.208,16.5Z" fill="#ec4245"/>
  </g>
</svg>
