<svg xmlns="http://www.w3.org/2000/svg" width="46" height="80" viewBox="0 0 46 80">
    <path fill="#444" d="M41.387 34.743H9.59v-8.362c0-7.724 6.016-14.009 13.41-14.009 6.578 0 12.14 4.908 13.225 11.67.322 2.008 2.143 3.362 4.064 3.026 1.922-.337 3.219-2.237 2.897-4.245-.792-4.93-3.241-9.442-6.897-12.705C32.589 6.818 27.87 5 23 5 11.714 5 2.532 14.591 2.532 26.38v8.707C1.259 35.594 0 36.738 0 39.005v11.97C0 64.221 10.318 75 23 75s23-10.778 23-24.026v-11.97c0-3.37-3.017-4.26-4.613-4.26zm-13.61 26.564c.078.381-.205.693-.629.693h-8.202c-.424 0-.706-.312-.628-.693l1.314-6.361C18.629 54.11 18 52.906 18 51.569 18 49.046 20.239 47 23 47s5 2.046 5 4.569c0 1.301-.596 2.475-1.552 3.307l1.328 6.431z"/>
</svg>
