<svg xmlns="http://www.w3.org/2000/svg" xmlns:xlink="http://www.w3.org/1999/xlink" width="247" height="36" viewBox="0 0 247 36">
  <defs>
    <clipPath id="clip-path">
      <rect id="Rectángulo_1" data-name="Rectángulo 1" width="247" height="36" fill="#fff"/>
    </clipPath>
  </defs>
  <g id="Layer_1_1_" data-name="Layer_1 (1)" clip-path="url(#clip-path)">
    <path id="Trazado_3" data-name="Trazado 3" d="M82.11,0h-5.13V5.138h5.13Z" fill="#fff"/>
    <path id="Trazado_4" data-name="Trazado 4" d="M5.129,7.715A2.567,2.567,0,0,1,7.7,5.146H28.224a2.572,2.572,0,0,1,2.569,2.569V36h5.129V7.715A7.706,7.706,0,0,0,28.224,0H7.7A7.706,7.706,0,0,0,0,7.715V36H5.129Z" fill="#fff"/>
    <path id="Trazado_5" data-name="Trazado 5" d="M51.318,0h-5.13V5.138h5.13Z" fill="#fff"/>
    <path id="Trazado_6" data-name="Trazado 6" d="M97.506,7.715a2.567,2.567,0,0,1,2.569-2.569H120.6a2.571,2.571,0,0,1,2.568,2.569V28.285a2.567,2.567,0,0,1-2.568,2.569H100.075a2.572,2.572,0,0,1-2.569-2.569ZM120.6,0H100.075a7.706,7.706,0,0,0-7.7,7.715V28.285a7.706,7.706,0,0,0,7.7,7.715H120.6a7.706,7.706,0,0,0,7.7-7.715V7.715A7.706,7.706,0,0,0,120.6,0Z" fill="#fff"/>
    <path id="Trazado_7" data-name="Trazado 7" d="M74.412,30.854H53.887a2.572,2.572,0,0,1-2.569-2.569v-18h-5.13v18A7.706,7.706,0,0,0,53.887,36H74.412a7.706,7.706,0,0,0,7.7-7.715v-18h-5.13v18A2.567,2.567,0,0,1,74.412,30.854Z" fill="#fff"/>
    <path id="Trazado_8" data-name="Trazado 8" d="M146.018,6.446h1.722a.717.717,0,0,1,.754.556l7.244,24.047c.146.548.285,1.183.408,1.88.069-.345.138-.674.2-.995a6.979,6.979,0,0,1,.246-.885L164.713,7A.874.874,0,0,1,165,6.611a.759.759,0,0,1,.485-.164h.569a.709.709,0,0,1,.469.157,1,1,0,0,1,.285.407l8.121,24.047q.138.411.254.869c.076.306.146.627.215.971.069-.329.131-.65.192-.963s.123-.6.192-.877L183.024,7.01a.707.707,0,0,1,.277-.392.8.8,0,0,1,.5-.164h1.585L176.348,35.71H174.48L166,10.316c-.107-.329-.2-.681-.284-1.057-.085.376-.177.721-.285,1.057l-8.5,25.394h-1.846L146.025,6.454Z" fill="#fff"/>
    <path id="Trazado_9" data-name="Trazado 9" d="M200.25,5.781a7.109,7.109,0,0,1,4.7,1.762,6.246,6.246,0,0,1,1.438,1.872,5.3,5.3,0,0,1,.577,2.225l-1.1.227a.5.5,0,0,1-.377-.071.761.761,0,0,1-.277-.407,5.173,5.173,0,0,0-.438-1.261,4.869,4.869,0,0,0-.946-1.324,5.2,5.2,0,0,0-1.5-1.042,4.848,4.848,0,0,0-2.091-.423,6.127,6.127,0,0,0-2.215.384A5.042,5.042,0,0,0,196.313,8.8a4.826,4.826,0,0,0-1.108,1.645,5.446,5.446,0,0,0-.392,2.091,6.6,6.6,0,0,0,.854,3.243A15.136,15.136,0,0,0,198.3,19.1l9.052,9.1a15.269,15.269,0,0,0,1.453-3.1,14.575,14.575,0,0,0,.7-3.125.879.879,0,0,1,.162-.423.444.444,0,0,1,.369-.157h1.115a13.772,13.772,0,0,1-.723,4,16.283,16.283,0,0,1-1.938,3.94l6.053,6.039h-1.808a1.81,1.81,0,0,1-.6-.086,1.688,1.688,0,0,1-.538-.376l-4.16-4.159a15.635,15.635,0,0,1-2.008,1.982,12.349,12.349,0,0,1-2.376,1.559,13.139,13.139,0,0,1-2.73,1.026,12.133,12.133,0,0,1-3.053.376,9.1,9.1,0,0,1-3.007-.517,8.122,8.122,0,0,1-2.646-1.52,7.64,7.64,0,0,1-1.884-2.46,7.432,7.432,0,0,1-.723-3.321,7.7,7.7,0,0,1,.531-2.843,9.218,9.218,0,0,1,1.446-2.483,10.535,10.535,0,0,1,2.169-2.013,12.291,12.291,0,0,1,2.722-1.449,13.64,13.64,0,0,1-2.161-3.212A7.926,7.926,0,0,1,193,12.548a6.836,6.836,0,0,1,.515-2.679,6.329,6.329,0,0,1,1.469-2.138,6.848,6.848,0,0,1,2.284-1.426,8.144,8.144,0,0,1,2.976-.517Zm-2.676,28.308a10.693,10.693,0,0,0,2.691-.329,10.507,10.507,0,0,0,2.377-.924,10.911,10.911,0,0,0,2.03-1.394,14.2,14.2,0,0,0,1.7-1.778l-9.321-9.329a1.512,1.512,0,0,1-.223-.227,11.849,11.849,0,0,0-2.423,1.387,9.388,9.388,0,0,0-1.838,1.786,8.025,8.025,0,0,0-1.161,2.123A7,7,0,0,0,191,27.76a6.046,6.046,0,0,0,.6,2.773,6.213,6.213,0,0,0,1.554,1.974,6.555,6.555,0,0,0,2.122,1.191,7.284,7.284,0,0,0,2.308.392Z" fill="#fff"/>
    <path id="Trazado_10" data-name="Trazado 10" d="M232.957,28.425c.085-.2.17-.423.27-.642a5.623,5.623,0,0,1,.3-.619L244.793,6.838a.706.706,0,0,1,.338-.329,1.446,1.446,0,0,1,.454-.063h1.423V35.7H245.2V10.77c0-.164,0-.345.007-.54s.016-.384.031-.58L233.95,30.078a.891.891,0,0,1-.816.541h-.323a.872.872,0,0,1-.807-.541L220.391,9.611c.039.4.062.783.062,1.159V35.7h-1.83V6.446h1.438a1.327,1.327,0,0,1,.446.063.722.722,0,0,1,.323.329L232.419,27.18a9.466,9.466,0,0,1,.531,1.238Z" fill="#fff"/>
  </g>
</svg>
