<svg xmlns="http://www.w3.org/2000/svg" width="302" height="298" viewBox="0 0 302 298">
    <path fill="#FFF" fill-rule="evenodd" d="M151 0c41.993 0 79.982 16.914 107.352 44.215 14.862 14.51 26.663 31.982 34.168 51.425 0 0 2.425 6.942 2.985 9.608.072.345.147.72.223 1.118C299.808 119.874 302 134.184 302 149c0 34.892-12.155 66.983-32.514 92.375l13.182 32.307s8.038 17.393 4.756 21.604c-4.693 6.01-40.057-12.982-54.502-21.105-22.538 14.397-49.215 23.024-77.882 23.767-.295.004-.59.01-.885.017-.7.016-1.4.026-2.102.031L151 298l.166-.001h-.084L151 298h-.077c-.757 0-1.512-.006-2.267-.017l-.726-.013c-.551-.01-1.101-.024-1.65-.041l-.92-.031c-.404-.015-.808-.032-1.212-.05-.49-.02-.978-.044-1.466-.07-.157-.012-.314-.02-.471-.03C62.906 293.26 0 228.38 0 149c0-13.99 1.954-27.528 5.607-40.366l.657-2.242c.078-.408.154-.792.227-1.144.558-2.666 2.987-9.608 2.987-9.608C14.43 82.812 21.27 70.858 29.609 60.031l.74-.952-14.737-36.252S7.582 5.38 10.862 1.16c5.092-6.549 46.331 16.483 57.682 23.003C92.246 8.881 120.572 0 151 0zm-20 154v81.19l23.333 18.018c2.622 2.026 6.39 1.541 8.416-1.081.811-1.05 1.251-2.34 1.251-3.668v-80.876c0-2.706-1.81-5.077-4.421-5.789L131 154zm20-107l-78.992 60.812-.008.006v111.453c.023 12.602.571 12.728 14.148 12.729H126v-83h44c3.238 0 5.878 2.566 5.996 5.775L176 155v71c0 3.238-2.566 5.878-5.775 5.996L170 232h47.435c14.416 0 14.56 0 14.565-13.96V107.818L151 47z"/>
</svg>
