<svg xmlns="http://www.w3.org/2000/svg" xmlns:xlink="http://www.w3.org/1999/xlink" width="436" height="106" viewBox="0 0 436 106">
    <defs>
        <path id="prefix__a" d="M0 106L436 106 436 0 0 0z"/>
    </defs>
    <g fill="none" fill-rule="evenodd">
        <path fill="#FEFEFE" d="M125.533 51.75c-1.646-3.817-3.897-7.156-6.748-10.014-2.855-2.856-6.19-5.102-10.008-6.738-3.817-1.638-7.876-2.453-12.177-2.453-3.994 0-7.824.707-11.488 2.125-3.628 1.404-6.88 3.4-9.753 5.98l-6.01-6.952S67.932 31.99 66.34 32c-1.42.01-1.335 1.698-1.335 1.698v.22H65V104h17.973V63.95c0-1.83.35-3.565 1.053-5.199.702-1.635 1.667-3.066 2.896-4.287 1.228-1.221 2.677-2.182 4.346-2.88 1.666-.697 3.443-1.047 5.332-1.047 1.842 0 3.575.35 5.2 1.047 1.623.698 3.05 1.659 4.28 2.88 1.227 1.22 2.194 2.652 2.896 4.287.701 1.634 1.053 3.369 1.053 5.199V104H128V63.95c0-4.315-.821-8.383-2.467-12.2M276.486 75.845c-.944 2.352-2.228 4.356-3.85 6.015-1.624 1.656-3.52 2.938-5.692 3.854-2.171.917-4.488 1.374-6.942 1.374-2.46 0-4.773-.492-6.944-1.472-2.173-.98-4.06-2.321-5.659-4.02-1.603-1.7-2.866-3.703-3.786-6.013-.92-2.31-1.38-4.816-1.38-7.52 0-2.875.46-5.477 1.38-7.81.92-2.33 2.183-4.337 3.786-6.015 1.6-1.676 3.486-2.962 5.659-3.854 2.171-.895 4.484-1.341 6.944-1.341 2.454 0 4.77.446 6.942 1.341 2.171.892 4.068 2.178 5.693 3.854 1.621 1.678 2.905 3.685 3.849 6.015.944 2.333 1.415 4.935 1.415 7.81 0 2.834-.471 5.425-1.415 7.782m16.682-22.98c-1.886-4.552-4.452-8.453-7.698-11.7-3.247-3.246-7.053-5.754-11.42-7.517-4.366-1.766-9.049-2.648-14.048-2.648-4.96 0-9.62.936-13.987 2.81-2.702 1.162-5.169 2.624-7.45 4.327l-4.043-4.677s-1.419-1.706-3.01-1.696c-1.418.01-1.333 1.696-1.333 1.696v13.498c-1.289 1.958-2.405 4.068-3.347 6.332-1.888 4.533-2.832 9.458-2.832 14.773 0 5.231.944 10.102 2.832 14.61 1.886 4.513 4.462 8.414 7.732 11.705 3.268 3.29 7.084 5.883 11.45 7.779 4.367 1.893 9.027 2.843 13.988 2.843 5 0 9.682-.95 14.048-2.843 4.367-1.896 8.173-4.49 11.42-7.78 3.246-3.29 5.812-7.191 7.698-11.704 1.888-4.508 2.832-9.379 2.832-14.61 0-5.577-.944-10.642-2.832-15.199"/>
        <mask id="prefix__b" fill="#fff">
            <use xlink:href="#prefix__a"/>
        </mask>
        <path fill="#FEFEFE" d="M0 104L19 104 19 3 0 3zM32.07 104H50.8V31.858H32.07V104zM54 12.26c0 1.705-.329 3.3-.989 4.78-.655 1.483-1.555 2.774-2.69 3.872-1.134 1.1-2.46 1.977-3.985 2.63-1.52.65-3.145.978-4.87.978s-3.35-.328-4.87-.978c-1.52-.653-2.839-1.53-3.948-2.63-1.114-1.098-1.998-2.389-2.659-3.873C29.33 15.56 29 13.965 29 12.26c0-1.662.33-3.244.989-4.751.66-1.505 1.545-2.804 2.66-3.906 1.108-1.101 2.427-1.976 3.947-2.627C38.116.327 39.74 0 41.466 0s3.35.327 4.87.975c1.524.651 2.85 1.526 3.985 2.627 1.135 1.102 2.035 2.401 2.69 3.906.66 1.507.989 3.09.989 4.751zM194.396 67.636c0-2.531-.484-4.99-1.452-7.367-.972-2.377-2.29-4.48-3.96-6.314-1.668-1.835-3.615-3.302-5.848-4.41-2.232-1.113-4.613-1.665-7.136-1.665-2.527 0-4.904.453-7.135 1.354-2.232.906-4.173 2.209-5.82 3.904-1.644 1.7-2.942 3.773-3.887 6.214-.946 2.444-1.422 5.205-1.422 8.284 0 2.669.476 5.207 1.422 7.605.945 2.4 2.243 4.505 3.888 6.313 1.646 1.81 3.587 3.238 5.82 4.28 2.23 1.041 4.607 1.56 7.134 1.56 2.523 0 4.904-.553 7.136-1.665 2.233-1.105 4.18-2.576 5.849-4.413 1.67-1.831 2.987-3.934 3.959-6.312.968-2.378 1.452-4.83 1.452-7.368zM213 104.64h-4.465l-7.17-9.98c-1.757 1.581-3.618 3.067-5.579 4.445-1.964 1.383-4.025 2.58-6.19 3.6-2.164 1.017-4.388 1.824-6.664 2.409-2.276.588-4.587.885-6.932.885-5.096 0-9.887-.965-14.375-2.886-4.484-1.924-8.408-4.595-11.768-8.011-3.357-3.42-6.01-7.469-7.945-12.154-1.94-4.687-2.912-9.789-2.912-15.313 0-5.475.972-10.568 2.912-15.276 1.936-4.709 4.588-8.78 7.945-12.22 3.36-3.44 7.284-6.134 11.768-8.08 4.488-1.95 9.28-2.923 14.375-2.923 1.621 0 3.303.136 5.04.41 1.736.27 3.425.712 5.071 1.32 1.645.615 3.19 1.415 4.636 2.414 1.44.993 2.659 2.216 3.65 3.664V3H213v101.64zM405.551 104H387V32h4.485l6.115 8.537c2.988-2.687 6.387-4.763 10.193-6.22 3.809-1.452 7.749-2.182 11.824-2.182H436v18.283h-16.383c-1.944 0-3.783.36-5.502 1.075-1.723.72-3.219 1.708-4.487 2.962-1.267 1.253-2.264 2.734-2.99 4.437-.725 1.702-1.087 3.516-1.087 5.446V104zM356.487 75.845c-.946 2.352-2.227 4.356-3.85 6.015-1.626 1.656-3.52 2.938-5.694 3.854-2.171.917-4.487 1.374-6.942 1.374-2.46 0-4.771-.492-6.944-1.472-2.172-.98-4.06-2.321-5.659-4.02-1.601-1.7-2.866-3.703-3.786-6.013-.92-2.31-1.381-4.816-1.381-7.52 0-2.875.46-5.477 1.38-7.81.92-2.33 2.186-4.337 3.787-6.015 1.6-1.676 3.487-2.962 5.659-3.854 2.173-.895 4.484-1.341 6.944-1.341 2.455 0 4.77.446 6.942 1.341 2.173.892 4.068 2.178 5.693 3.854 1.624 1.678 2.905 3.685 3.851 6.015.942 2.333 1.415 4.935 1.415 7.81 0 2.834-.473 5.425-1.415 7.782m16.683-22.98c-1.886-4.552-4.454-8.453-7.699-11.7-3.248-3.246-7.053-5.754-11.42-7.517-4.366-1.766-9.05-2.648-14.05-2.648-4.959 0-9.62.936-13.986 2.81-2.704 1.162-5.17 2.624-7.45 4.327l-4.045-4.677s-1.417-1.706-3.007-1.696c-1.42.01-1.335 1.696-1.335 1.696v13.498c-1.29 1.958-2.404 4.068-3.348 6.332-1.886 4.533-2.83 9.458-2.83 14.773 0 5.231.944 10.102 2.83 14.61 1.886 4.513 4.462 8.414 7.733 11.705 3.267 3.29 7.086 5.883 11.452 7.779 4.365 1.893 9.027 2.843 13.986 2.843 5 0 9.684-.95 14.05-2.843 4.367-1.896 8.172-4.49 11.42-7.78 3.245-3.29 5.813-7.191 7.699-11.704 1.888-4.508 2.83-9.379 2.83-14.61 0-5.577-.942-10.642-2.83-15.199" mask="url(#prefix__b)"/>
    </g>
</svg>
