<svg xmlns="http://www.w3.org/2000/svg" xmlns:xlink="http://www.w3.org/1999/xlink" width="247" height="36" viewBox="0 0 247 36">
  <defs>
    <clipPath id="clip-path">
      <rect id="Rectángulo_2" data-name="Rectángulo 2" width="247" height="36" fill="#fff"/>
    </clipPath>
  </defs>
  <g id="Layer_1" clip-path="url(#clip-path)">
    <path id="Trazado_1" data-name="Trazado 1" d="M82.11,0H76.981V5.138H82.11Z" fill="#2b2b2d"/>
    <path id="Trazado_2" data-name="Trazado 2" d="M5.129,7.715A2.567,2.567,0,0,1,7.7,5.146H28.224a2.572,2.572,0,0,1,2.569,2.569V36h5.129V7.715A7.706,7.706,0,0,0,28.224,0H7.7A7.706,7.706,0,0,0,0,7.715V36H5.129Z" fill="#2b2b2d"/>
    <path id="Trazado_3" data-name="Trazado 3" d="M51.318,0h-5.13V5.138h5.13Z" fill="#2b2b2d"/>
    <path id="Trazado_4" data-name="Trazado 4" d="M97.506,7.715a2.567,2.567,0,0,1,2.569-2.569H120.6a2.571,2.571,0,0,1,2.568,2.569V28.285a2.567,2.567,0,0,1-2.568,2.569H100.075a2.572,2.572,0,0,1-2.569-2.569ZM120.6,0H100.075a7.706,7.706,0,0,0-7.7,7.715V28.285a7.706,7.706,0,0,0,7.7,7.715H120.6a7.706,7.706,0,0,0,7.7-7.715V7.715A7.706,7.706,0,0,0,120.6,0Z" fill="#2b2b2d"/>
    <path id="Trazado_5" data-name="Trazado 5" d="M74.412,30.854H53.887a2.572,2.572,0,0,1-2.569-2.569v-18h-5.13v18A7.706,7.706,0,0,0,53.887,36H74.412a7.706,7.706,0,0,0,7.7-7.715v-18h-5.13v18A2.567,2.567,0,0,1,74.412,30.854Z" fill="#2b2b2d"/>
    <path id="Trazado_6" data-name="Trazado 6" d="M146.018,6.446h1.722a.717.717,0,0,1,.754.556l7.244,24.047c.146.548.285,1.183.408,1.88.069-.345.138-.674.2-.995a6.979,6.979,0,0,1,.246-.885L164.713,7A.874.874,0,0,1,165,6.611a.759.759,0,0,1,.485-.164h.569a.709.709,0,0,1,.469.157,1,1,0,0,1,.285.407l8.121,24.047q.138.411.254.87c.076.305.146.627.215.971.069-.329.131-.65.192-.964s.123-.6.192-.877L183.024,7.01a.707.707,0,0,1,.277-.392.8.8,0,0,1,.5-.164h1.585L176.348,35.71H174.48L166,10.316c-.107-.329-.2-.681-.284-1.057-.085.376-.177.721-.285,1.057l-8.5,25.394h-1.846L146.025,6.454Z" fill="#ec4286"/>
    <path id="Trazado_7" data-name="Trazado 7" d="M200.25,5.781a7.1,7.1,0,0,1,4.7,1.762,6.246,6.246,0,0,1,1.438,1.872,5.3,5.3,0,0,1,.577,2.225l-1.1.227a.5.5,0,0,1-.377-.071.755.755,0,0,1-.276-.407,5.222,5.222,0,0,0-.439-1.261,4.869,4.869,0,0,0-.946-1.324,5.2,5.2,0,0,0-1.5-1.042,4.853,4.853,0,0,0-2.092-.423,6.127,6.127,0,0,0-2.215.384A5.061,5.061,0,0,0,196.313,8.8a4.826,4.826,0,0,0-1.108,1.645,5.446,5.446,0,0,0-.392,2.091,6.613,6.613,0,0,0,.854,3.243A15.144,15.144,0,0,0,198.3,19.1l9.051,9.1a15.33,15.33,0,0,0,1.454-3.1,14.7,14.7,0,0,0,.7-3.125.88.88,0,0,1,.161-.423.445.445,0,0,1,.369-.157h1.115a13.738,13.738,0,0,1-.723,4,16.21,16.21,0,0,1-1.938,3.94l6.053,6.039H212.74a1.8,1.8,0,0,1-.6-.086,1.68,1.68,0,0,1-.539-.376l-4.16-4.159a15.692,15.692,0,0,1-2.007,1.982,12.393,12.393,0,0,1-2.377,1.559,13.123,13.123,0,0,1-2.73,1.026,12.133,12.133,0,0,1-3.053.376,9.1,9.1,0,0,1-3.007-.517,8.107,8.107,0,0,1-2.645-1.52,7.612,7.612,0,0,1-1.884-2.459,7.432,7.432,0,0,1-.723-3.321,7.723,7.723,0,0,1,.53-2.843,9.218,9.218,0,0,1,1.446-2.483,10.589,10.589,0,0,1,2.169-2.013,12.291,12.291,0,0,1,2.722-1.449,13.64,13.64,0,0,1-2.161-3.211A7.926,7.926,0,0,1,193,12.548a6.818,6.818,0,0,1,.516-2.679,6.326,6.326,0,0,1,1.468-2.138,6.859,6.859,0,0,1,2.284-1.426,8.145,8.145,0,0,1,2.977-.517Zm-2.676,28.308a10.707,10.707,0,0,0,2.692-.329,10.5,10.5,0,0,0,2.376-.924,10.911,10.911,0,0,0,2.03-1.394,14.129,14.129,0,0,0,1.7-1.778l-9.321-9.329a1.561,1.561,0,0,1-.223-.227,11.845,11.845,0,0,0-2.422,1.386,9.36,9.36,0,0,0-1.838,1.786,8.028,8.028,0,0,0-1.162,2.123A7,7,0,0,0,191,27.76a6.046,6.046,0,0,0,.6,2.773,6.21,6.21,0,0,0,1.553,1.974,6.548,6.548,0,0,0,2.123,1.191,7.273,7.273,0,0,0,2.307.392Z" fill="#2b2b2d"/>
    <path id="Trazado_8" data-name="Trazado 8" d="M232.957,28.426c.085-.2.17-.423.27-.642a5.623,5.623,0,0,1,.3-.619L244.793,6.838a.705.705,0,0,1,.338-.329,1.445,1.445,0,0,1,.454-.063h1.423V35.7H245.2V10.77c0-.165,0-.345.007-.54s.016-.384.031-.58L233.95,30.078a.892.892,0,0,1-.816.54h-.323a.872.872,0,0,1-.807-.54L220.391,9.611c.039.4.062.783.062,1.159V35.7h-1.83V6.446h1.438a1.327,1.327,0,0,1,.446.063.722.722,0,0,1,.323.329L232.419,27.18a9.47,9.47,0,0,1,.531,1.237Z" fill="#ec4286"/>
  </g>
</svg>
